<svg xmlns="http://www.w3.org/2000/svg" version="1.1" xmlns:xlink="http://www.w3.org/1999/xlink" xmlns:svgjs="http://svgjs.dev/svgjs" width="2000" height="484" viewBox="0 0 2000 484"><g transform="matrix(1,0,0,1,-1.2121212121212466,-0.3541482837212868)"><svg viewBox="0 0 396 96" data-background-color="#ffffff" preserveAspectRatio="xMidYMid meet" height="484" width="2000" xmlns="http://www.w3.org/2000/svg" xmlns:xlink="http://www.w3.org/1999/xlink"><g id="tight-bounds" transform="matrix(1,0,0,1,0.2400000000000091,0.07024428768025359)"><svg viewBox="0 0 395.52 95.85951142463949" height="95.85951142463949" width="395.52"><g><svg viewBox="0 0 535.4991978081794 129.7853243076923" height="95.85951142463949" width="395.52"><g transform="matrix(1,0,0,1,139.9791978081794,40.1055490316742)"><svg viewBox="0 0 395.52 49.57422624434388" height="49.57422624434388" width="395.52"><g><svg viewBox="0 0 395.52 49.57422624434388" height="49.57422624434388" width="395.52"><g><svg viewBox="0 0 395.52 49.57422624434388" height="49.57422624434388" width="395.52"><g transform="matrix(1,0,0,1,0,0)"><svg width="395.52" viewBox="0.15 -41 331.48 41.55" height="49.57422624434388" data-palette-color="#31c48d"><path d="M4.35-3.5L8-33.4 2.6-34.05 2.6-37.15 18.2-37.15 24.15-15.65 25.55-9.8 26.75-15.65 32.65-37.15 48.1-37.15 48.1-34.05 42.65-33.4 46.65-3.55 50.7-3 50.7 0 34.75 0 34.75-3 39.15-3.5 36.95-25.4 36-34.55 34.15-26.85 26.9-1.55 21.6-1.55 14.2-25.55 11.65-34.55 10.9-25.4 9-3.5 14.05-3 14.05 0 0.15 0 0.15-3 4.35-3.5ZM53.1-13.85Q53.1-18.55 54.97-21.85 56.85-25.15 60-26.83 63.15-28.5 66.85-28.5L66.85-28.5Q73.15-28.5 76.57-24.63 80-20.75 80-14.1L80-14.1Q80-9.35 78.12-6.03 76.25-2.7 73.12-1.07 70 0.55 66.25 0.55L66.25 0.55Q60 0.55 56.55-3.33 53.1-7.2 53.1-13.85L53.1-13.85ZM66.65-2.7Q72.3-2.7 72.3-13.6L72.3-13.6Q72.3-19.3 70.95-22.28 69.6-25.25 66.55-25.25L66.55-25.25Q60.75-25.25 60.75-14.35L60.75-14.35Q60.75-8.65 62.17-5.68 63.6-2.7 66.65-2.7L66.65-2.7ZM84.55-13.85Q84.55-18.55 86.42-21.85 88.3-25.15 91.45-26.83 94.6-28.5 98.3-28.5L98.3-28.5Q104.6-28.5 108.02-24.63 111.45-20.75 111.45-14.1L111.45-14.1Q111.45-9.35 109.57-6.03 107.7-2.7 104.57-1.07 101.45 0.55 97.7 0.55L97.7 0.55Q91.45 0.55 88-3.33 84.55-7.2 84.55-13.85L84.55-13.85ZM98.1-2.7Q103.75-2.7 103.75-13.6L103.75-13.6Q103.75-19.3 102.4-22.28 101.05-25.25 98-25.25L98-25.25Q92.2-25.25 92.2-14.35L92.2-14.35Q92.2-8.65 93.62-5.68 95.05-2.7 98.1-2.7L98.1-2.7ZM120.39-8.05L121.54-4.1Q121.94-3.5 123.37-2.98 124.79-2.45 126.24-2.45L126.24-2.45Q128.59-2.45 129.77-3.43 130.94-4.4 130.94-6L130.94-6Q130.94-7.65 129.49-8.68 128.04-9.7 124.59-11.2L124.59-11.2 123.19-11.8Q119.74-13.25 118.04-15.3 116.34-17.35 116.34-20.6L116.34-20.6Q116.34-22.85 117.69-24.63 119.04-26.4 121.49-27.4 123.94-28.4 127.14-28.4L127.14-28.4Q129.49-28.4 131.17-28.1 132.84-27.8 134.69-27.3L134.69-27.3Q135.69-26.95 136.19-26.9L136.19-26.9 136.19-20.35 132.24-20.35 131.09-24.15Q130.79-24.65 129.74-25.05 128.69-25.45 127.34-25.45L127.34-25.45Q125.29-25.45 124.07-24.58 122.84-23.7 122.84-22.15L122.84-22.15Q122.84-20.75 123.69-19.83 124.54-18.9 125.54-18.4 126.54-17.9 129.24-16.75L129.24-16.75Q131.94-15.6 133.72-14.55 135.49-13.5 136.67-11.83 137.84-10.15 137.84-7.75L137.84-7.75Q137.84-4.05 134.94-1.75 132.04 0.55 126.59 0.55L126.59 0.55Q124.04 0.55 122.02 0.1 119.99-0.35 117.34-1.1L117.34-1.1 116.24-1.45 116.24-8.05 120.39-8.05ZM147.89-32.35Q146.09-32.35 145.04-33.4 143.99-34.45 143.99-36.1L143.99-36.1Q143.99-38 145.19-39.25 146.39-40.5 148.39-40.5L148.39-40.5Q150.39-40.5 151.44-39.43 152.49-38.35 152.49-36.75L152.49-36.75Q152.49-34.75 151.29-33.55 150.09-32.35 147.94-32.35L147.94-32.35 147.89-32.35ZM145.24-3.45L145.24-23.05 141.69-24 141.69-27.35 150.84-28.45 150.94-28.45 152.34-27.45 152.34-3.4 155.69-3 155.69 0 141.74 0 141.74-3 145.24-3.45ZM158.64-13.75Q158.64-18.05 160.36-21.4 162.09-24.75 165.31-26.63 168.54-28.5 172.84-28.5L172.84-28.5Q174.84-28.5 176.29-28.2 177.74-27.9 179.54-27.4L179.54-27.4 180.99-27 180.69-18.45 176.34-18.45 175.09-23.95Q174.79-25.25 172.14-25.25L172.14-25.25Q169.34-25.25 167.76-22.8 166.19-20.35 166.14-15.15L166.14-15.15Q166.14-9.65 168.04-6.73 169.94-3.8 173.09-3.8L173.09-3.8Q176.89-3.8 180.09-5.85L180.09-5.85 181.24-3.25Q179.94-1.85 177.26-0.65 174.59 0.55 171.49 0.55L171.49 0.55Q165.09 0.55 161.86-3.4 158.64-7.35 158.64-13.75L158.64-13.75ZM187.34-3.5L190.99-33.4 185.59-34.05 185.59-37.15 201.19-37.15 207.14-15.65 208.54-9.8 209.74-15.65 215.64-37.15 231.09-37.15 231.09-34.05 225.64-33.4 229.64-3.55 233.69-3 233.69 0 217.74 0 217.74-3 222.14-3.5 219.94-25.4 218.99-34.55 217.14-26.85 209.89-1.55 204.59-1.55 197.19-25.55 194.64-34.55 193.89-25.4 191.99-3.5 197.04-3 197.04 0 183.14 0 183.14-3 187.34-3.5ZM236.08-13.85Q236.08-18.55 237.96-21.85 239.83-25.15 242.98-26.83 246.13-28.5 249.83-28.5L249.83-28.5Q256.13-28.5 259.56-24.63 262.98-20.75 262.98-14.1L262.98-14.1Q262.98-9.35 261.11-6.03 259.23-2.7 256.11-1.07 252.98 0.55 249.23 0.55L249.23 0.55Q242.98 0.55 239.53-3.33 236.08-7.2 236.08-13.85L236.08-13.85ZM249.63-2.7Q255.28-2.7 255.28-13.6L255.28-13.6Q255.28-19.3 253.93-22.28 252.58-25.25 249.53-25.25L249.53-25.25Q243.73-25.25 243.73-14.35L243.73-14.35Q243.73-8.65 245.16-5.68 246.58-2.7 249.63-2.7L249.63-2.7ZM270.33-3.45L270.33-23.05 267.13-23.95 267.13-27.4 275.43-28.45 275.58-28.45 276.83-27.45 276.83-25.5 276.78-24.3Q278.53-25.95 281.33-27.15 284.13-28.35 286.98-28.35L286.98-28.35Q290.03-28.35 291.76-27.23 293.48-26.1 294.23-23.7 294.98-21.3 294.98-17.2L294.98-17.2 294.98-3.4 298.03-3 298.03 0 285.13 0 285.13-3 287.83-3.4 287.83-17.2Q287.83-19.8 287.48-21.28 287.13-22.75 286.21-23.43 285.28-24.1 283.58-24.1L283.58-24.1Q280.73-24.1 277.48-21.65L277.48-21.65 277.48-3.45 280.48-3 280.48 0 267.43 0 267.43-3 270.33-3.45ZM303.88-3.45L303.88-36.55 300.28-37.2 300.28-39.9 309.48-41 309.58-41 310.93-40.05 310.93-16.3 310.78-13.65 320.98-24.35 317.28-24.9 317.28-27.75 330.33-27.75 330.33-24.9 326.28-24.25 320.13-18.35 328.88-3.4 331.63-3 331.63 0 318.43 0 318.43-3 320.98-3.45 315.28-14 310.78-9.45 310.88-6.9 310.88-3.45 314.03-3 314.03 0 300.98 0 300.98-3 303.88-3.45Z" opacity="1" transform="matrix(1,0,0,1,0,0)" fill="#31c48d" class="undefined-text-0" data-fill-palette-color="primary" id="text-0"></path></svg></g></svg></g></svg></g></svg></g><g><svg viewBox="0 0 128.27591277331967 129.7853243076923" height="129.7853243076923" width="128.27591277331967"><g><svg xmlns="http://www.w3.org/2000/svg" xmlns:xlink="http://www.w3.org/1999/xlink" version="1.0" x="0" y="0" viewBox="6.070837385219418 6.218 89.182534553122 90.23193769833249" enable-background="new 0 0 100 100" xml:space="preserve" height="129.7853243076923" width="128.27591277331967" class="icon-icon-0" data-fill-palette-color="accent" id="icon-0"><g fill="#31c48d" data-fill-palette-color="accent"><path fill="#31c48d" d="M78.216 40.423c-6.808 1.134-14.948 1.562-16.235 0.276l-1.399 1.398c0.309 0.309 1.748 1.377 6.839 1.377 2.622 0 6.214-0.283 11.119-1.101L78.216 40.423z" data-fill-palette-color="accent"></path><path fill="#31c48d" d="M25.348 40.699l-1.399 1.398c0.996 0.997 5.91 1.206 9.857 1.206 3.947 0 8.862-0.209 9.858-1.206l-1.326-1.458C40.743 41.566 26.87 41.565 25.348 40.699z" data-fill-palette-color="accent"></path><path fill="#31c48d" d="M94.678 38.793C94.263 37.902 93.634 38 93.297 38h-2.751c0.438-3.349 0.416-6.157-0.253-7.939-2.043-5.448-7.027-11.328-13.334-15.728-5.306-3.703-14.028-8.115-25.446-8.115-20.905 0-35.967 13.204-39.984 22.579-0.898 2.095-0.904 5.369-0.317 9.203H8.027c-0.338 0-0.965-0.099-1.38 0.792-1.042 2.239-0.708 9.181 1.308 11.576 1.224 1.454 2.945 1.827 4.389 1.827 1.228 0 2.246-0.225 2.597-0.315 3.502 9.739 8.445 18.977 11.641 20.895l0.026-0.044c1.57 8.8 4.603 19.707 5.769 21.042 3.155 3.612 33.405 3.362 37.28 0.487 2.309-1.713 5.485-12.769 7.071-21.718 3.255-2.789 7.43-11.484 10.394-20.471 0.464 0.068 1.017 0.122 1.612 0.122 1.565 0 3.411-0.255 4.634-1.709C95.385 48.089 95.719 41.031 94.678 38.793zM9.469 49.336C7.932 47.511 7.781 41 8.378 40h3.183c0.619 3.17 1.58 6.622 2.749 10.072C13.664 50.271 10.878 51.011 9.469 49.336zM56.185 72.019c0 0.188-0.456 0.981-1.019 0.981h-7.488c-0.563 0-1.019-0.794-1.019-0.981l-3.391-2.826c0-0.188 0.456-0.193 1.019-0.193h14.271c0.563 0 1.019 0.005 1.019 0.193L56.185 72.019zM77.157 60.936c-1.605-1.604-7.953-3.736-14.889-5.009l-3.764-7.265-1.769 0.758 2.937 6.077c-2.795-0.414-5.602-0.666-8.158-0.666-2.17 0-4.553 0.083-6.968 0.273l2.968-5.936-1.769-0.885-3.519 7.038c-7.684 0.831-15.092 2.835-16.355 6.837-0.416 1.319-0.246 4.147 0.254 7.594-5.949-6.713-16.085-32.455-12.777-40.174 3.695-8.622 18.381-21.381 38.167-21.381 19.422 0 33.517 13.461 36.928 22.559 0.588 1.568 0.573 4.137 0.134 7.244H88v2h0.244c-1.774 9.651-6.857 23.059-10.942 28.88C77.845 64.813 77.901 61.681 77.157 60.936zM91.855 49.336c-0.948 1.125-2.768 1.09-4.137 0.865 1.094-3.533 1.975-7.043 2.519-10.201h2.71C93.545 41 93.393 47.511 91.855 49.336z" data-fill-palette-color="accent"></path></g></svg></g></svg></g></svg></g><defs></defs></svg><rect width="395.52" height="95.85951142463949" fill="none" stroke="none" visibility="hidden"></rect></g></svg></g></svg>